<?xml version="1.0" encoding="UTF-8"?>
<svg id="Camada_1" xmlns="http://www.w3.org/2000/svg" version="1.1" viewBox="0 0 31.9 32">
  <!-- Generator: Adobe Illustrator 29.5.1, SVG Export Plug-In . SVG Version: 2.1.0 Build 141)  -->
  <defs>
    <style>
      .st0 {
        fill: #4a5959;
      }

      .st1 {
        fill: #63130e;
      }

      .st2 {
        fill: #93403d;
      }

      .st3 {
        fill: #2c3738;
      }
    </style>
  </defs>
  <g>
    <path class="st1" d="M19.5,12.5c-.4-.7-.9-1.3-1.4-1.9-.3.2-.5.5-.8.8-.3.4-.6.8-.9,1.3.8,1.6,1.2,3.4,1.2,5.5s-.4,3.8-1.2,5.3c.3.4.6.9.9,1.3.3.4.6.7.9.9.5-.6,1-1.2,1.4-1.8,1-1.7,1.5-3.6,1.5-5.7s-.5-4-1.6-5.7ZM13.6,26.9c-1.3.9-2.7,1.4-4.3,1.4s-1.8-.2-2.7-.5c-.8-.4-1.5-.8-2.1-1.3-.5-.5-1-1-1.5-1.5-.4-.5-.7-.9-.9-1.3l-.3-.5H.7c0,.2.2.4.3.7.1.3.4.8.9,1.5.5.7,1,1.3,1.6,1.9.6.5,1.4,1,2.5,1.5,1,.4,2.2.7,3.3.7,2.2,0,4.1-.4,5.8-1.2-.5-.3-1-.7-1.5-1.2ZM9,7c-.7,0-1.7,0-2.8.2-1.1.1-2,.3-2.8.4l-1.1.2-.7,4.9h.9c0-.1.2-.3.3-.5.1-.2.4-.6.8-1.1.4-.6.8-1,1.3-1.5.5-.4,1.1-.8,1.8-1.1.8-.3,1.6-.5,2.4-.5,1.7,0,3.3.5,4.6,1.6.4-.4.9-.8,1.4-1.1-1.8-1-3.8-1.4-6.1-1.4Z"/>
    <path class="st3" d="M31.2,23.1c0,.2-.2.4-.3.7-.1.3-.4.8-.9,1.5-.5.7-1,1.3-1.6,1.9-.6.5-1.4,1-2.5,1.5-1,.4-2.2.7-3.3.7-2.3,0-4.4-.5-6.1-1.4-.2,0-.3-.2-.5-.3-.6-.4-1.2-.8-1.7-1.2-.8-.7-1.4-1.5-1.9-2.4-1-1.7-1.5-3.6-1.5-5.7s.5-4,1.6-5.7c.6-.9,1.2-1.7,2-2.4.5-.4,1-.8,1.5-1.2.2-.2.5-.3.8-.4,1.8-1,3.9-1.5,6.2-1.5s1.7,0,2.8.2c1.1.1,2,.3,2.8.4l1.1.2.7,4.9h-.9c0-.1-.2-.3-.3-.5-.1-.2-.4-.6-.8-1.1-.4-.6-.8-1-1.3-1.5-.5-.4-1.1-.8-1.8-1.1-.8-.3-1.6-.5-2.4-.5-2,0-3.8.7-5.3,2.1-.3.3-.5.6-.8.9-.3.3-.5.7-.7,1-1.1,1.8-1.7,3.9-1.7,6.3s.6,4.4,1.7,6.2c.2.3.5.7.7,1,.3.4.6.7,1,1,1.4,1.3,3.1,1.9,5,1.9s1.8-.2,2.6-.5c.8-.4,1.5-.8,2.1-1.3.6-.5,1-1,1.5-1.5.4-.5.7-.9.9-1.3l.3-.5h1.2Z"/>
  </g>
  <g>
    <rect class="st1" x="11.5" y="1.5" width="3.9" height="3.9" rx="2" ry="2"/>
    <rect class="st0" x="16.4" y="1.5" width="3.9" height="3.9" rx="2" ry="2"/>
    <rect class="st3" x="21.3" y="1.5" width="3.9" height="3.9" rx="2" ry="2"/>
    <rect class="st2" x="6.7" y="1.5" width="3.9" height="3.9" rx="2" ry="2"/>
  </g>
</svg>